<?xml version="1.0" encoding="UTF-8" standalone="no"?>
<!-- Created with Inkscape (http://www.inkscape.org/) -->

<svg
   width="16"
   height="16"
   viewBox="0 0 4.2333332 4.2333335"
   version="1.1"
   id="svg5"
   inkscape:version="1.1.1 (3bf5ae0d25, 2021-09-20)"
   sodipodi:docname="equation-symbolic.svg"
   xmlns:inkscape="http://www.inkscape.org/namespaces/inkscape"
   xmlns:sodipodi="http://sodipodi.sourceforge.net/DTD/sodipodi-0.dtd"
   xmlns="http://www.w3.org/2000/svg"
   xmlns:svg="http://www.w3.org/2000/svg">
  <sodipodi:namedview
     id="namedview7"
     pagecolor="#ffffff"
     bordercolor="#666666"
     borderopacity="1.0"
     inkscape:pageshadow="2"
     inkscape:pageopacity="0.0"
     inkscape:pagecheckerboard="0"
     inkscape:document-units="mm"
     showgrid="false"
     units="px"
     width="16px"
     inkscape:zoom="18.261873"
     inkscape:cx="7.0091388"
     inkscape:cy="15.414629"
     inkscape:window-width="1920"
     inkscape:window-height="1016"
     inkscape:window-x="0"
     inkscape:window-y="0"
     inkscape:window-maximized="1"
     inkscape:current-layer="layer1" />
  <defs
     id="defs2" />
  <g
     inkscape:label="Layer 1"
     inkscape:groupmode="layer"
     id="layer1">
    <path
       style="stroke-width:0.0161961"
       d="M 2.8263823,3.5244013 C 2.7729351,3.5166597 2.6832109,3.4877207 2.6269951,3.4600922 2.4709806,3.3834152 2.3920556,3.2592164 2.3368688,3.0035404 2.2882683,2.7783789 2.3027877,1.5557712 2.3584057,1.1899403 l 0.00923,-0.060736 H 1.9884815 1.6093227 L 1.5890294,1.424784 C 1.5481358,2.0204415 1.5098004,2.3312079 1.4255398,2.75011 1.3070945,3.3389634 1.1967967,3.5156433 0.94763179,3.5156433 0.80002922,3.5156433 0.68896886,3.4507323 0.67079193,3.3538398 0.64650186,3.2243578 0.69259009,3.116351 0.86676244,2.894582 1.1153339,2.5780855 1.267865,2.0382532 1.3215863,1.2848881 l 0.011419,-0.1601412 -0.1707394,0.00759 c -0.1428839,0.00635 -0.18526804,0.014701 -0.25978787,0.051161 -0.0913154,0.044677 -0.28540231,0.2316071 -0.34470018,0.3319904 -0.0256224,0.043377 -0.0396046,0.051008 -0.0934487,0.051008 -0.0623251,0 -0.0631572,-7.958e-4 -0.0531578,-0.050795 0.0183445,-0.091721 0.14313513,-0.3552722 0.21344273,-0.4507781 0.1442705,-0.19597349 0.2895948,-0.30205899 0.46878232,-0.34220299 0.1046343,-0.023441 2.7090841,-0.0410553 2.7316652,-0.018475 0.0097,0.009703 -0.019316,0.0829715 -0.078652,0.1985897 C 3.6149712,1.1589498 3.6342413,1.1507816 3.1889425,1.1391291 l -0.3500683,-0.00916 -0.011292,0.1089414 c -0.046108,0.4448439 -0.056894,1.4921693 -0.017293,1.6791148 0.049003,0.2313235 0.1379098,0.3360374 0.3129508,0.3685897 0.086482,0.016083 0.1131762,0.01462 0.1932709,-0.010588 0.07548,-0.023756 0.1131704,-0.049837 0.2007165,-0.1388914 l 0.1077867,-0.1096435 0.050125,0.030483 c 0.02757,0.016766 0.050126,0.034822 0.050126,0.040124 0,0.0053 -0.026763,0.049961 -0.059474,0.099241 C 3.556966,3.3612939 3.3479494,3.4917139 3.1399179,3.5254701 3.0225592,3.5445131 2.9638568,3.5443127 2.8263814,3.524399 Z"
       id="path12538" />
  </g>
</svg>
