<?xml version="1.0" encoding="UTF-8" standalone="no"?>
<svg
   viewBox="0 0 16 16"
   version="1.1"
   id="svg886"
   sodipodi:docname="line-height-symbolic.svg"
   inkscape:version="1.1.1 (3bf5ae0d25, 2021-09-20)"
   xmlns:inkscape="http://www.inkscape.org/namespaces/inkscape"
   xmlns:sodipodi="http://sodipodi.sourceforge.net/DTD/sodipodi-0.dtd"
   xmlns="http://www.w3.org/2000/svg"
   xmlns:svg="http://www.w3.org/2000/svg">
  <defs
     id="defs890" />
  <sodipodi:namedview
     id="namedview888"
     pagecolor="#ffffff"
     bordercolor="#666666"
     borderopacity="1.0"
     inkscape:pageshadow="2"
     inkscape:pageopacity="0.0"
     inkscape:pagecheckerboard="0"
     showgrid="false"
     inkscape:zoom="32.219909"
     inkscape:cx="10.552482"
     inkscape:cy="5.7883465"
     inkscape:window-width="1920"
     inkscape:window-height="1016"
     inkscape:window-x="0"
     inkscape:window-y="0"
     inkscape:window-maximized="1"
     inkscape:current-layer="svg886" />
  <g
     transform="matrix(0.61034956,0,0,1,-111.34256,-400)"
     color="#bebebe"
     fill="#666666"
     id="g884">
    <rect
       x="193"
       y="401"
       width="14"
       height="1"
       overflow="visible"
       id="rect874" />
    <rect
       x="193"
       y="404"
       width="14"
       height="1"
       overflow="visible"
       id="rect876"
       style="stroke-width:1.00096;stroke-miterlimit:4;stroke-dasharray:none" />
    <rect
       x="193"
       y="410"
       width="14"
       height="1"
       overflow="visible"
       id="rect878" />
    <rect
       x="193"
       y="413"
       width="14"
       height="1"
       overflow="visible"
       id="rect880" />
    <rect
       x="193"
       y="407"
       height="1"
       overflow="visible"
       id="rect882"
       width="14.002665"
       style="fill:#666666;fill-opacity:1" />
  </g>
  <g
     id="g1531"
     transform="matrix(0.75722066,0,0,0.75722066,-9.7603337,-6.7570486)"
     style="fill:#666666;fill-opacity:1">
    <path
       d="m 19.629982,21.688562 h -0.823045 c -0.212191,0 -0.437243,0.128906 -0.591564,0.3125 l -1.054527,1.28125 v -8.59375 h -1.64609 v 8.59375 l -1.054527,-1.28125 c -0.157536,-0.183594 -0.379373,-0.3125 -0.591564,-0.3125 H 13.04562 v 1 c 0,0.308594 0.07394,0.550781 0.231481,0.75 l 3.0607,3.65625 3.060699,-3.65625 c 0.157536,-0.199219 0.231482,-0.441406 0.231482,-0.75 z m 0,0"
       fill="#2e3436"
       id="path1278"
       style="fill:#666666;fill-opacity:1;stroke-width:0.907218" />
    <path
       d="m 19.629982,16.282312 h -0.823045 c -0.212191,0 -0.437243,-0.128906 -0.591564,-0.3125 l -1.054527,-1.28125 v 8.59375 h -1.64609 v -8.59375 l -1.054527,1.28125 c -0.157536,0.183594 -0.379373,0.3125 -0.591564,0.3125 H 13.04562 v -1 c 0,-0.308594 0.07394,-0.550781 0.231481,-0.75 l 3.0607,-3.65625 3.060699,3.65625 c 0.157536,0.199219 0.231482,0.441406 0.231482,0.75 z m 0,0"
       fill="#2e3436"
       id="path1494"
       style="fill:#666666;fill-opacity:1;stroke-width:0.907218" />
  </g>
</svg>
