<?xml version="1.0" encoding="UTF-8" standalone="no"?>
<!-- Created with Inkscape (http://www.inkscape.org/) -->

<svg
   width="16"
   height="16"
   viewBox="0 0 4.2333332 4.2333335"
   version="1.1"
   id="svg5"
   inkscape:version="1.1.1 (3bf5ae0d25, 2021-09-20)"
   sodipodi:docname="text-small-symbolic.svg"
   xmlns:inkscape="http://www.inkscape.org/namespaces/inkscape"
   xmlns:sodipodi="http://sodipodi.sourceforge.net/DTD/sodipodi-0.dtd"
   xmlns="http://www.w3.org/2000/svg"
   xmlns:svg="http://www.w3.org/2000/svg">
  <sodipodi:namedview
     id="namedview7"
     pagecolor="#ffffff"
     bordercolor="#666666"
     borderopacity="1.0"
     inkscape:pageshadow="2"
     inkscape:pageopacity="0.0"
     inkscape:pagecheckerboard="0"
     inkscape:document-units="mm"
     showgrid="false"
     units="px"
     width="16px"
     inkscape:zoom="31.526644"
     inkscape:cx="4.6627227"
     inkscape:cy="9.6267778"
     inkscape:window-width="1920"
     inkscape:window-height="1016"
     inkscape:window-x="0"
     inkscape:window-y="0"
     inkscape:window-maximized="1"
     inkscape:current-layer="layer1" />
  <defs
     id="defs2" />
  <g
     inkscape:label="Layer 1"
     inkscape:groupmode="layer"
     id="layer1">
    <text
       xml:space="preserve"
       style="font-style:normal;font-weight:normal;font-size:3.11882px;line-height:1.25;font-family:sans-serif;fill:#000000;fill-opacity:1;stroke:none;stroke-width:0.0779705"
       x="1.9243219"
       y="2.9679461"
       id="text9228"><tspan
         sodipodi:role="line"
         id="tspan9226"
         style="font-style:normal;font-variant:normal;font-weight:bold;font-stretch:normal;font-family:sans-serif;-inkscape-font-specification:'sans-serif Bold';stroke-width:0.0779705"
         x="1.9243219"
         y="2.9679461">s</tspan></text>
    <g
       id="g835"
       transform="matrix(0.26458333,0,0,0.26458333,0.10424322,0.22646876)"
       style="fill:#000000">
      <g
         id="g1531"
         transform="matrix(0.75722066,0,0,0.75722066,-9.7603337,-6.7570486)"
         style="fill-opacity:1;fill:#000000">
        <path
           d="m 19.629982,21.688562 h -0.823045 c -0.212191,0 -0.437243,0.128906 -0.591564,0.3125 l -1.054527,1.28125 v -8.59375 h -1.64609 v 8.59375 l -1.054527,-1.28125 c -0.157536,-0.183594 -0.379373,-0.3125 -0.591564,-0.3125 H 13.04562 v 1 c 0,0.308594 0.07394,0.550781 0.231481,0.75 l 3.0607,3.65625 3.060699,-3.65625 c 0.157536,-0.199219 0.231482,-0.441406 0.231482,-0.75 z m 0,0"
           fill="#2e3436"
           id="path1278"
           style="fill-opacity:1;stroke-width:0.907218;fill:#000000" />
        <path
           d="m 19.629982,16.282312 h -0.823045 c -0.212191,0 -0.437243,-0.128906 -0.591564,-0.3125 l -1.054527,-1.28125 v 8.59375 h -1.64609 v -8.59375 l -1.054527,1.28125 c -0.157536,0.183594 -0.379373,0.3125 -0.591564,0.3125 H 13.04562 v -1 c 0,-0.308594 0.07394,-0.550781 0.231481,-0.75 l 3.0607,-3.65625 3.060699,3.65625 c 0.157536,0.199219 0.231482,0.441406 0.231482,0.75 z m 0,0"
           fill="#2e3436"
           id="path1494"
           style="fill-opacity:1;stroke-width:0.907218;fill:#000000" />
      </g>
    </g>
  </g>
</svg>
