<?xml version="1.0" encoding="UTF-8" standalone="no"?>
<!-- Created with Inkscape (http://www.inkscape.org/) -->

<svg
   width="128"
   height="128"
   viewBox="0 0 33.866666 33.866666"
   version="1.1"
   id="svg879"
   inkscape:version="1.1.2 (0a00cf5339, 2022-02-04)"
   sodipodi:docname="io.github.limads.Drafts.svg"
   xmlns:inkscape="http://www.inkscape.org/namespaces/inkscape"
   xmlns:sodipodi="http://sodipodi.sourceforge.net/DTD/sodipodi-0.dtd"
   xmlns:xlink="http://www.w3.org/1999/xlink"
   xmlns="http://www.w3.org/2000/svg"
   xmlns:svg="http://www.w3.org/2000/svg">
  <sodipodi:namedview
     id="namedview881"
     pagecolor="#ffffff"
     bordercolor="#666666"
     borderopacity="1.0"
     inkscape:pageshadow="2"
     inkscape:pageopacity="0.0"
     inkscape:pagecheckerboard="0"
     inkscape:document-units="mm"
     showgrid="false"
     units="px"
     width="256px"
     inkscape:zoom="1.2372755"
     inkscape:cx="-162.45372"
     inkscape:cy="46.473078"
     inkscape:window-width="1920"
     inkscape:window-height="1016"
     inkscape:window-x="0"
     inkscape:window-y="0"
     inkscape:window-maximized="1"
     inkscape:current-layer="g17959"
     showguides="true"
     inkscape:guide-bbox="true" />
  <defs
     id="defs876">
    <linearGradient
       inkscape:collect="always"
       id="linearGradient925">
      <stop
         style="stop-color:#37483e;stop-opacity:1;"
         offset="0"
         id="stop921" />
      <stop
         style="stop-color:#698875;stop-opacity:1"
         offset="1"
         id="stop923" />
    </linearGradient>
    <linearGradient
       inkscape:collect="always"
       id="linearGradient23631">
      <stop
         style="stop-color:#dbdee3;stop-opacity:1;"
         offset="0"
         id="stop23627" />
      <stop
         style="stop-color:#dbdee3;stop-opacity:0;"
         offset="1"
         id="stop23629" />
    </linearGradient>
    <linearGradient
       inkscape:collect="always"
       id="linearGradient21510">
      <stop
         style="stop-color:#f9f9f9;stop-opacity:1"
         offset="0"
         id="stop21506" />
      <stop
         style="stop-color:#e6e6e6;stop-opacity:1"
         offset="1"
         id="stop21508" />
    </linearGradient>
    <linearGradient
       inkscape:collect="always"
       xlink:href="#linearGradient21510"
       id="linearGradient21512"
       x1="144.48938"
       y1="7.6778407"
       x2="144.48938"
       y2="127.83826"
       gradientUnits="userSpaceOnUse" />
    <radialGradient
       inkscape:collect="always"
       xlink:href="#linearGradient23631"
       id="radialGradient23633"
       cx="39.109642"
       cy="-1.5004495"
       fx="39.109642"
       fy="-1.5004495"
       r="3.1414945"
       gradientTransform="matrix(5.4319936,0,0,5.3715861,-209.90234,27.031453)"
       gradientUnits="userSpaceOnUse" />
    <linearGradient
       inkscape:collect="always"
       xlink:href="#linearGradient925"
       id="linearGradient927"
       x1="-3.2210466"
       y1="9.2639974"
       x2="2.8546356"
       y2="9.2639974"
       gradientUnits="userSpaceOnUse" />
  </defs>
  <g
     inkscape:label="Layer 1"
     inkscape:groupmode="layer"
     id="layer1">
    <g
       fill="#222222"
       id="g944"
       transform="matrix(1.9526028,0,0,1.9526028,8.7241339,17.246565)">
      <g
         id="g21366"
         transform="translate(0,0.30961746)">
        <g
           id="g24851"
           transform="translate(1.6471316,-0.18521005)">
          <g
             id="g21370"
             transform="rotate(-23.927748,-14.334754,14.18225)" />
          <g
             id="g25502"
             transform="translate(0.81071185,0.12766432)">
            <g
               id="g1084"
               transform="translate(-1.7460083)">
              <g
                 id="g1040">
                <g
                   id="g18893"
                   transform="matrix(0.87050454,0,0,0.87050454,37.695025,36.309059)">
                  <g
                     id="g6603"
                     transform="translate(-15.140461,-37.87908)">
                    <g
                       id="g22006"
                       transform="matrix(1.1673081,0,0,1.1673081,-41.781068,-16.500034)" />
                    <g
                       id="g22010"
                       transform="matrix(1.1673081,0,0,1.1673081,-41.781068,-15.309594)" />
                    <g
                       id="g22014"
                       transform="matrix(1.1673081,0,0,1.1673081,-41.781068,-14.119156)" />
                    <g
                       id="g22018"
                       transform="matrix(1.1673081,0,0,1.1673081,-41.781068,-12.928716)" />
                    <g
                       id="g22022"
                       transform="matrix(1.1673081,0,0,1.1673081,-41.781068,-11.738276)" />
                    <g
                       id="g22026"
                       transform="matrix(1.1673081,0,0,1.1673081,-41.781068,-10.547837)" />
                    <g
                       id="g1205"
                       transform="matrix(1.1673081,0,0,1.1673081,-41.781068,-16.500034)" />
                  </g>
                </g>
              </g>
            </g>
            <g
               id="g959"
               transform="translate(-0.26592398,-0.19681985)">
              <g
                 id="g921"
                 transform="translate(0.29698713,-0.16470962)">
                <g
                   id="g993"
                   transform="matrix(1.130339,0,0,1.130339,-1.3341551,0.19281975)">
                  <g
                     id="g23131"
                     transform="matrix(0.18059705,0,0,0.24512651,-35.693836,-7.4207623)"
                     style="fill:#b3b3b3;fill-opacity:1;stroke-width:0.251203;stroke-miterlimit:4;stroke-dasharray:none">
                    <path
                       d="M 242.86819,55.381696 V 5.9960967 l -11.79547,-7.2370432 h -43.08627 c -3.00112,0 -5.39682,1.41664723 -5.40626,3.1842982 l -0.28436,53.2715203 c 0.0134,2.894881 2.96636,4.812804 6.6498,4.812804 h 48.16323 c 3.79829,0 5.75933,-2.185463 5.75933,-4.64598 z"
                       id="path23127"
                       fill="#888a85"
                       style="opacity:1;fill:#b3b3b3;fill-opacity:1"
                       sodipodi:nodetypes="cccsscccc" />
                  </g>
                  <g
                     id="g17959"
                     transform="matrix(0.17895492,0,0,0.2380888,-22.947534,-8.1727774)"
                     style="fill:#efefef;fill-opacity:1;stroke-width:0.251203;stroke-miterlimit:4;stroke-dasharray:none">
                    <path
                       d="M 173.5687,58.692395 V 9.3067961 L 161.77323,2.0697529 h -43.08627 c -3.00112,0 -5.39682,1.4166472 -5.40626,3.1842982 l -0.28436,53.2715199 c 0.0134,2.894881 2.96636,4.812804 6.6498,4.812804 h 48.16323 c 3.79829,0 5.75933,-2.185463 5.75933,-4.64598 z"
                       id="Q"
                       fill="#888a85"
                       style="opacity:1;fill:url(#linearGradient21512);fill-opacity:1"
                       sodipodi:nodetypes="cccsscccc" />
                    <path
                       style="fill:#b3b3b3;fill-opacity:1;stroke:#b3b3b3;stroke-width:0.251203;stroke-linecap:butt;stroke-linejoin:miter;stroke-miterlimit:4;stroke-dasharray:none;stroke-opacity:1"
                       d="m 161.77323,2.0155947 c -0.1355,8.9949283 0.30409,7.1185957 12.03819,7.4149102"
                       id="path15549"
                       sodipodi:nodetypes="cc" />
                  </g>
                  <g
                     id="g998">
                    <rect
                       style="fill:#00aa44;stroke:none;stroke-width:0.274445;stroke-miterlimit:4;stroke-dasharray:none"
                       id="rect2605"
                       width="1.1461622"
                       height="3.4178383"
                       x="-22.182528"
                       y="-5.2256908"
                       ry="0.23424542"
                       transform="matrix(0.87050454,0,0,0.87050454,22.769177,3.335148)" />
                    <rect
                       style="fill:#5f8dd3;stroke:none;stroke-width:0.303714;stroke-miterlimit:4;stroke-dasharray:none"
                       id="rect2829"
                       width="1.1461622"
                       height="4.1857638"
                       x="-20.646442"
                       y="-5.9936156"
                       ry="0.15068047"
                       transform="matrix(0.87050454,0,0,0.87050454,22.769177,3.335148)" />
                    <rect
                       style="fill:#d35f5f;stroke:none;stroke-width:0.249101;stroke-miterlimit:4;stroke-dasharray:none"
                       id="rect2951"
                       width="1.1461622"
                       height="2.8157578"
                       x="-19.110359"
                       y="-4.6236095"
                       ry="0.097498149"
                       transform="matrix(0.87050454,0,0,0.87050454,22.769177,3.335148)" />
                  </g>
                  <g
                     id="g22264"
                     transform="matrix(0.71392492,0,0,1.319013,-10.586811,-27.136758)"
                     style="fill:#999999;stroke-width:1.42582;stroke-miterlimit:4;stroke-dasharray:none">
                    <rect
                       style="fill:#999999;stroke:none;stroke-width:1.42582;stroke-miterlimit:4;stroke-dasharray:none"
                       id="rect22262"
                       width="8.9464998"
                       height="0.48032254"
                       x="14.134674"
                       y="17.073578"
                       ry="0.14779377" />
                  </g>
                  <g
                     id="g6980"
                     transform="matrix(0.54811245,0,0,1.319013,-7.5013861,-26.110883)"
                     style="fill:#999999;stroke-width:1.42582;stroke-miterlimit:4;stroke-dasharray:none">
                    <rect
                       style="fill:#999999;stroke:none;stroke-width:1.42582;stroke-miterlimit:4;stroke-dasharray:none"
                       id="rect6978"
                       width="8.9464998"
                       height="0.48032254"
                       x="14.134674"
                       y="17.073578"
                       ry="0.14779377" />
                  </g>
                  <g
                     id="g7138"
                     transform="matrix(0.4089464,0,0,0.4089464,8.4999255,-2.5291279)">
                    <g
                       id="g7136"
                       transform="matrix(0.9810209,0,0,1.8119376,-37.390361,-22.540029)">
                      <g
                         id="g7342"
                         style="fill:#b3b3b3"
                         transform="translate(0,0.78159251)">
                        <g
                           id="g7124"
                           transform="translate(1.8617634e-7,-3.7526363)"
                           style="fill:#b3b3b3">
                          <rect
                             style="fill:#b3b3b3;stroke:none;stroke-width:0.197151;stroke-miterlimit:4;stroke-dasharray:none"
                             id="rect7122"
                             width="8.9464998"
                             height="0.48032254"
                             x="14.134674"
                             y="17.073578"
                             ry="0.14779377" />
                        </g>
                        <g
                           id="g7128"
                           transform="translate(1.8617634e-7,-2.2255044)"
                           style="fill:#b3b3b3">
                          <rect
                             style="fill:#b3b3b3;stroke:none;stroke-width:0.197151;stroke-miterlimit:4;stroke-dasharray:none"
                             id="rect7126"
                             width="8.9464998"
                             height="0.48032254"
                             x="14.134674"
                             y="17.073578"
                             ry="0.14779377" />
                        </g>
                        <rect
                           style="fill:#b3b3b3;stroke:none;stroke-width:0.197151;stroke-miterlimit:4;stroke-dasharray:none"
                           id="rect7134"
                           width="8.9464998"
                           height="0.48032254"
                           x="14.134674"
                           y="16.375206"
                           ry="0.14779377" />
                      </g>
                      <g
                         id="g7354"
                         transform="translate(0,5.67111)"
                         style="fill:#b3b3b3">
                        <g
                           id="g7346"
                           transform="translate(1.8617634e-7,-3.7526363)"
                           style="fill:#b3b3b3">
                          <rect
                             style="fill:#b3b3b3;stroke:none;stroke-width:0.197151;stroke-miterlimit:4;stroke-dasharray:none"
                             id="rect7344"
                             width="8.9464998"
                             height="0.48032254"
                             x="14.134674"
                             y="17.073578"
                             ry="0.14779377" />
                        </g>
                        <g
                           id="g7350"
                           transform="translate(1.8617634e-7,-2.2255044)"
                           style="fill:#b3b3b3">
                          <rect
                             style="fill:#b3b3b3;stroke:none;stroke-width:0.197151;stroke-miterlimit:4;stroke-dasharray:none"
                             id="rect7348"
                             width="8.9464998"
                             height="0.48032254"
                             x="14.134674"
                             y="17.073578"
                             ry="0.14779377" />
                        </g>
                        <rect
                           style="fill:#b3b3b3;stroke:none;stroke-width:0.197151;stroke-miterlimit:4;stroke-dasharray:none"
                           id="rect7352"
                           width="8.9464998"
                           height="0.48032254"
                           x="14.134674"
                           y="16.375206"
                           ry="0.14779377" />
                      </g>
                      <g
                         id="g7366"
                         transform="translate(11.411615,5.6750892)"
                         style="fill:#b3b3b3">
                        <g
                           id="g7358"
                           transform="translate(1.8617634e-7,-3.7526363)"
                           style="fill:#b3b3b3" />
                        <g
                           id="g1005">
                          <rect
                             style="fill:#b3b3b3;stroke:none;stroke-width:0.197151;stroke-miterlimit:4;stroke-dasharray:none"
                             id="rect7356"
                             width="8.9464998"
                             height="0.48032254"
                             x="14.134674"
                             y="17.073578"
                             ry="0.14779377"
                             transform="translate(2.6963897e-7,-3.7526363)" />
                          <g
                             id="g7362"
                             transform="translate(1.8617634e-7,-2.2255044)"
                             style="fill:#b3b3b3">
                            <rect
                               style="fill:#b3b3b3;stroke:none;stroke-width:0.197151;stroke-miterlimit:4;stroke-dasharray:none"
                               id="rect7360"
                               width="8.9464998"
                               height="0.48032254"
                               x="14.134674"
                               y="17.073578"
                               ry="0.14779377" />
                          </g>
                          <rect
                             style="fill:#b3b3b3;stroke:none;stroke-width:0.197151;stroke-miterlimit:4;stroke-dasharray:none"
                             id="rect7364"
                             width="8.9464998"
                             height="0.48032254"
                             x="14.134674"
                             y="16.375206"
                             ry="0.14779377" />
                        </g>
                      </g>
                    </g>
                  </g>
                </g>
              </g>
              <g
                 id="g25588"
                 transform="matrix(0.42898803,0,0,0.42898803,-2.8470534,-2.1296839)">
                <g
                   id="g1393"
                   transform="translate(0.68743533)">
                  <path
                     d="m 0.19736023,14.595524 c -0.58788694,0 -1.05985012,0.275898 -1.05985012,0.611221 v 0.818295 c 0,0.335324 0.47196318,0.611221 1.05985012,0.611221 H -1.9223368 c -0.5837465,0 -1.1674897,0.577265 -1.0267312,1.256398 l 1.0267312,5.093506 c 0.140757,0.679134 0.4761053,1.256398 1.05984691,1.256398 H 5.4966012 c 0.5837465,0 0.9190868,-0.577264 1.0598486,-1.256398 l 1.059847,-5.093506 C 7.7570539,17.213526 7.1401912,16.636261 6.5564498,16.636261 H 4.4367527 c 0.587887,0 1.0598485,-0.275897 1.0598485,-0.611221 v -0.950787 c 0,-0.335323 -0.4719615,-0.478729 -1.0598485,-0.478729 z"
                     id="path23366"
                     style="fill:#939dac;stroke-width:1.58679"
                     sodipodi:nodetypes="ssscsccssccscssss" />
                  <g
                     id="g1384">
                    <path
                       d="m 0.28870664,14.603309 c -0.56366404,0 -1.01618411,0.258015 -1.01618411,0.571604 v 0.889159 c 0,0.31359 0.45252007,0.571604 1.01618411,0.571604 H -1.7436599 c -0.5596952,0 -1.1193902,0.539849 -0.9844297,1.174963 l 0.9844297,4.763362 c 0.1349622,0.635114 0.4564889,1.174963 1.01618243,1.174963 H 5.369627 c 0.5596951,0 0.8812219,-0.539849 1.0161841,-1.174963 L 7.4019935,17.810639 C 7.5369556,17.175525 6.9455044,16.635676 6.3858111,16.635676 H 4.3534429 c 0.5636656,0 1.0161841,-0.258014 1.0161841,-0.571604 v -0.889159 c 0,-0.313589 -0.4525185,-0.571604 -1.0161841,-0.571604 z m 0,0"
                       id="path940"
                       style="fill:url(#radialGradient23633);fill-opacity:1;stroke-width:1.61864" />
                    <g
                       id="g1307">
                      <path
                         id="path942"
                         style="fill:url(#linearGradient927);fill-opacity:1;stroke-width:1.28089"
                         d="M -0.85059546,0.04576132 C -1.4659396,0.79734647 -1.9329859,1.6243083 -2.2846039,2.4748449 L -1.164382,3.2431484 -2.3603191,2.6608837 c -0.2631932,0.6714609 -0.4521708,1.3550607 -0.5870268,2.0269654 l 0.8371647,0.642758 -0.8697874,-0.4875373 C -3.1192005,5.5825979 -3.1905743,6.3051115 -3.2113382,6.9773179 L -1.7477587,7.5713985 -3.2200596,7.243533 c -0.00874,0.7261648 0.041243,1.3812735 0.1229345,1.928619 L -0.75357236,9.6426327 -3.019273,9.6056161 c 0.010132,0.049404 0.018595,0.1067873 0.029245,0.1535328 0.082141,0.5173901 0.1757559,0.9969371 0.2780733,1.4417421 l 1.4523398,0.304873 -1.3882955,-0.03553 c 1.0584854,4.308139 2.93661688,5.165443 2.93661688,5.165443 0.74835782,2.804982 1.56808092,4.164556 1.56808092,4.164556 l 0.8197119,-1.51744 c 0,0 -1.9424635,-3.409348 0.1781363,-4.333218 C 0.68078579,7.9663426 -0.15219617,2.2923801 2.4273674,-2.2722383 c 0,0 -1.4179771,0.3896634 -2.72179541,1.70115557 -0.19741763,0.1988634 -0.38259191,0.40486138 -0.55616592,0.6168528 z" />
                      <path
                         style="fill:#b7c8be;stroke:none;stroke-width:0.145861px;stroke-linecap:butt;stroke-linejoin:miter;stroke-opacity:1"
                         d="M 1.3251675,14.932148 C -0.80774772,10.289859 -0.93262301,7.2240329 -0.42515516,4.2457818 -0.27604747,7.3479457 -0.12234121,9.8056408 1.3251839,14.932148 Z"
                         id="path15173"
                         sodipodi:nodetypes="cccc" />
                    </g>
                    <path
                       id="path4685"
                       style="fill:#666666;stroke:none;stroke-width:0.116595px;stroke-linecap:butt;stroke-linejoin:miter;stroke-opacity:1"
                       d="M 6.470343,18.943427 C 6.4909292,19.379804 5.5944399,19.64934 5.0107938,19.703189 2.7709272,19.826756 0.50841915,17.96627 -1.7760004,19.050854 l 0.1551952,0.709049 h 7.8756809 z m -8.0911547,0.816476 0.5097503,2.466549 c 0.1162184,0.546942 0.39299622,1.011862 0.87498853,1.011862 H 4.9147582 c 0.4819939,0 0.7081374,-0.46492 0.8243619,-1.011862 l 0.5166253,-2.466549 z" />
                  </g>
                </g>
              </g>
            </g>
          </g>
        </g>
      </g>
    </g>
  </g>
</svg>
